<?xml version="1.0" standalone="no"?>
<!DOCTYPE svg PUBLIC "-//W3C//DTD SVG 20010904//EN"
 "http://www.w3.org/TR/2001/REC-SVG-20010904/DTD/svg10.dtd">
<svg version="1.0" xmlns="http://www.w3.org/2000/svg"
 width="50px" height="50px" viewBox="0 0 1131.000000 1600.000000"
 preserveAspectRatio="xMidYMid meet">

<g transform="translate(0.000000,1600.000000) scale(0.100000,-0.100000)"
fill="#000000" stroke="none">
<path d="M5785 13895 c-27 -7 -111 -27 -185 -44 -134 -32 -136 -32 -240 -106
-57 -42 -116 -87 -131 -101 -31 -29 -25 -31 -121 38 -65 48 -73 50 -268 95
l-201 47 -205 -37 c-186 -34 -361 -72 -710 -156 -106 -26 -129 -35 -188 -78
-37 -26 -88 -62 -113 -80 -28 -19 -75 -73 -120 -135 -41 -57 -80 -109 -87
-116 -11 -12 -46 -6 -209 32 l-196 45 -193 -44 c-138 -33 -223 -58 -298 -91
-135 -60 -490 -236 -600 -299 -297 -169 -489 -292 -767 -489 l-181 -128 -79
-111 c-44 -62 -82 -117 -85 -122 -4 -6 -26 -98 -51 -205 l-45 -195 47 -196 46
-195 183 -255 182 -254 111 -79 c61 -43 125 -82 143 -87 132 -37 375 -89 394
-84 24 6 24 6 189 -260 44 -71 122 -197 173 -280 51 -82 134 -215 183 -295
193 -312 223 -359 302 -467 57 -79 98 -125 138 -153 31 -23 57 -45 57 -49 0
-5 -11 -55 -23 -112 -21 -91 -23 -116 -15 -194 5 -49 20 -138 33 -197 14 -59
25 -116 25 -127 0 -11 -21 -110 -46 -218 -41 -176 -47 -215 -52 -350 -3 -117
-1 -167 11 -220 9 -37 37 -160 63 -273 86 -378 127 -472 329 -755 182 -254
238 -316 398 -435 31 -23 57 -44 57 -45 0 -2 -28 -23 -62 -48 -49 -35 -83 -73
-154 -172 l-92 -128 -43 -189 -44 -189 -75 -59 c-103 -81 -217 -208 -336 -374
-94 -133 -117 -169 -185 -291 -26 -48 -69 -202 -158 -570 -59 -245 -62 -266
-50 -444 8 -131 17 -189 60 -366 47 -198 85 -332 114 -400 7 -16 20 -50 30
-75 32 -85 275 -424 387 -540 76 -79 93 -93 228 -189 58 -42 125 -91 150 -108
64 -47 206 -121 270 -143 82 -28 476 -125 620 -153 197 -39 300 -31 650 50
282 64 360 88 460 138 48 25 93 45 98 45 6 0 43 -46 84 -102 136 -190 230
-294 359 -398 115 -92 358 -260 377 -260 5 0 34 -15 65 -34 31 -19 78 -42 104
-51 26 -9 55 -21 64 -25 20 -10 226 -64 484 -126 170 -40 207 -46 346 -51 187
-7 247 1 544 68 236 54 415 110 535 167 65 30 202 119 333 213 32 23 43 26 63
18 14 -5 38 -9 52 -9 32 0 372 78 482 110 41 12 120 35 175 50 55 15 188 53
295 84 226 67 359 104 414 117 78 19 279 81 323 100 25 10 92 54 150 96 88 64
117 92 176 171 38 53 78 109 87 126 10 17 43 137 73 266 63 274 77 343 77 392
0 36 8 80 35 203 7 33 21 107 30 165 22 141 43 256 66 370 11 52 24 124 29
160 5 36 17 117 27 180 24 157 21 198 -30 401 l-43 176 -86 119 c-80 111 -95
126 -205 205 -65 47 -154 105 -198 129 -129 70 -149 81 -165 94 -8 7 -55 35
-105 61 -49 26 -103 57 -118 68 -31 21 -143 85 -224 128 -28 14 -78 43 -111
64 -52 32 -61 42 -67 73 -3 21 -4 55 -1 77 2 22 7 128 11 235 3 107 13 359 21
560 9 201 16 390 16 420 0 30 4 127 10 214 9 155 9 162 -17 266 l-26 106 25
101 c14 56 26 118 26 138 0 43 -89 435 -130 575 -77 260 -263 626 -472 928
-43 61 -78 113 -78 116 0 2 69 54 153 114 246 177 236 166 899 1127 200 292
391 568 424 615 260 376 241 343 264 448 12 53 33 140 46 193 l24 97 -46 198
-47 199 -83 117 c-78 109 -93 123 -207 206 -154 112 -262 184 -457 304 -188
115 -225 134 -285 148 -31 7 -80 34 -144 80 -63 45 -158 98 -276 153 -317 150
-386 175 -607 229 l-208 51 -197 -48 c-109 -26 -204 -52 -212 -58 -10 -9 -17
-6 -28 8 -8 11 -46 64 -85 117 -62 87 -83 107 -188 183 -66 47 -125 85 -132
85 -7 0 -96 21 -198 45 -335 82 -733 150 -1055 179 -401 37 -671 45 -760 21z
m495 -96 c460 -28 945 -103 1375 -212 126 -32 133 -35 229 -106 86 -62 110
-87 173 -174 55 -77 76 -115 85 -157 6 -30 13 -57 14 -58 1 -2 26 14 56 35 76
57 77 57 253 98 182 42 175 42 391 -10 223 -53 665 -251 836 -374 60 -43 105
-67 150 -79 92 -26 457 -249 726 -444 87 -63 113 -90 171 -170 38 -52 73 -103
78 -114 6 -10 27 -94 48 -185 l38 -167 -42 -176 -41 -175 -547 -793 c-643
-933 -707 -1022 -793 -1108 -63 -63 -286 -229 -382 -285 -27 -15 -48 -29 -48
-30 0 -2 21 -34 48 -71 127 -180 164 -235 209 -309 26 -44 53 -91 60 -105 7
-14 27 -47 43 -75 17 -27 44 -78 60 -111 95 -201 110 -234 110 -241 0 -5 6
-20 14 -35 36 -69 71 -191 141 -496 l47 -204 -26 -111 c-31 -135 -32 -137 -5
-240 19 -73 20 -98 14 -232 -4 -82 -7 -159 -7 -170 0 -11 -4 -114 -9 -230 -8
-190 -11 -294 -24 -720 -2 -71 -7 -152 -10 -180 -3 -27 -6 -111 -7 -185 l-1
-135 84 -53 c46 -29 109 -65 139 -81 30 -15 96 -52 145 -81 50 -29 136 -78
191 -109 56 -31 108 -62 116 -69 8 -6 46 -29 84 -50 38 -21 92 -51 119 -67 89
-49 245 -166 279 -209 18 -22 57 -74 85 -115 51 -71 54 -79 96 -259 l43 -185
-18 -96 c-10 -53 -24 -141 -30 -196 -7 -55 -21 -140 -32 -190 -11 -49 -30
-153 -43 -230 -35 -205 -44 -257 -70 -390 -13 -66 -26 -154 -29 -195 -4 -41
-33 -181 -64 -310 l-58 -235 -72 -100 c-61 -86 -85 -110 -171 -172 -133 -96
-108 -86 -531 -205 -80 -22 -181 -51 -225 -64 -44 -12 -127 -36 -185 -53 -58
-16 -161 -46 -230 -66 -203 -59 -286 -81 -450 -119 -150 -35 -157 -35 -209
-21 l-55 14 -100 -73 c-110 -79 -201 -139 -256 -168 -128 -68 -483 -171 -770
-225 -88 -16 -326 -21 -430 -8 -30 4 -181 38 -335 75 -275 68 -424 116 -483
159 -17 11 -34 21 -39 21 -15 0 -160 91 -263 165 -207 148 -310 254 -474 483
-58 81 -111 155 -118 165 -12 18 -15 17 -54 -11 -103 -75 -256 -132 -527 -197
-238 -57 -327 -70 -482 -69 -149 1 -219 14 -585 110 -191 50 -207 56 -363 137
-13 7 -45 28 -72 48 -28 19 -97 69 -155 110 -104 73 -243 203 -311 289 -55 69
-221 310 -246 355 -21 39 -28 58 -79 200 -14 39 -50 171 -81 295 l-56 225 -1
185 -1 185 77 306 c89 355 103 398 157 484 23 36 41 67 41 70 0 3 46 70 102
148 112 157 190 243 318 349 47 39 88 74 92 77 4 3 25 87 48 186 22 99 45 191
51 204 6 13 45 72 87 131 68 94 89 115 175 176 54 38 102 74 107 79 6 7 -8 24
-38 46 -238 177 -306 244 -457 453 -216 298 -266 406 -340 726 -68 297 -78
353 -80 467 -2 137 3 175 61 421 l45 192 -30 133 c-45 202 -48 259 -16 402 14
66 28 125 30 131 2 7 -32 37 -75 68 -93 66 -156 149 -346 456 -256 411 -454
731 -550 888 l-99 162 -57 -6 c-48 -5 -89 2 -230 36 l-173 42 -103 75 -102 75
-170 237 -169 238 -42 176 -41 175 42 178 42 178 74 103 c64 87 90 113 177
176 443 323 921 602 1397 816 105 47 331 111 450 127 21 3 101 -10 204 -35
142 -33 177 -45 220 -75 l51 -36 15 58 c11 41 36 87 87 159 64 89 86 111 176
176 96 69 111 76 198 96 52 12 177 42 279 66 102 25 283 62 402 84 l218 41
142 -35 c79 -18 159 -37 178 -40 22 -4 78 -38 149 -91 62 -46 114 -84 115 -84
2 0 18 23 37 50 23 35 68 75 141 127 l107 77 178 42 c198 46 210 47 593 23z"/>
<path d="M5857 13023 c-4 -3 -7 -79 -7 -168 l0 -162 53 -7 c28 -3 100 -6 158
-6 58 0 134 -3 169 -7 l62 -6 -6 -106 c-4 -58 -29 -432 -56 -831 -28 -399 -57
-828 -65 -955 -8 -126 -18 -260 -21 -296 l-6 -65 138 -13 c76 -7 174 -18 217
-25 43 -7 79 -10 81 -7 2 3 6 24 10 46 5 37 31 201 155 995 62 399 159 1012
174 1110 l12 75 35 -3 c19 -2 114 -19 210 -38 96 -18 177 -30 181 -26 11 11
77 316 70 324 -10 11 -354 75 -546 102 -400 55 -992 96 -1018 69z"/>
<path d="M4499 12920 c-123 -22 -492 -100 -498 -106 -3 -2 2 -34 11 -72 18
-79 600 -2456 602 -2458 0 -1 58 11 127 26 69 15 165 33 212 40 74 11 87 16
87 32 0 11 -25 180 -55 376 -30 196 -78 506 -106 687 -28 182 -75 490 -105
685 -30 195 -68 443 -85 550 -42 279 -38 260 -63 259 -11 0 -68 -9 -127 -19z"/>
<path d="M8626 12449 c-8 -19 -91 -225 -185 -459 -448 -1111 -540 -1347 -556
-1425 -21 -100 -24 -301 -6 -375 38 -161 161 -321 295 -385 123 -58 241 -67
391 -29 141 36 319 148 406 255 31 38 178 247 390 554 30 44 211 306 402 582
191 277 347 507 347 512 0 18 -327 232 -511 334 l-65 37 -35 -63 c-20 -34 -89
-156 -154 -272 -65 -115 -164 -291 -220 -390 -423 -750 -551 -975 -576 -1011
-36 -52 -78 -88 -142 -120 -40 -21 -51 -23 -58 -12 -17 26 -22 104 -12 168 12
71 26 99 614 1251 164 322 299 590 299 595 0 6 -21 21 -47 34 -114 56 -391
180 -551 247 -7 3 -18 -8 -26 -28z"/>
<path d="M2655 12350 c-410 -191 -729 -369 -1077 -602 -98 -65 -178 -123 -178
-129 0 -5 43 -70 95 -144 l95 -134 187 125 c103 68 191 123 197 121 6 -2 27
-30 47 -63 20 -32 112 -180 204 -329 92 -148 236 -380 319 -515 496 -800 621
-1000 627 -1000 4 0 54 27 111 61 57 34 137 78 178 100 41 21 81 42 89 47 10
8 -95 225 -494 1017 -279 553 -505 1008 -503 1011 6 5 326 158 366 174 18 7
31 16 30 20 -79 188 -133 310 -137 310 -3 0 -73 -32 -156 -70z"/>
<path d="M6057 9343 c-57 -3 -68 -7 -63 -19 3 -9 6 -18 6 -20 0 -2 22 -4 49
-4 59 0 107 -16 116 -38 13 -34 105 -725 99 -748 -5 -18 -19 -28 -60 -41 -39
-12 -54 -22 -54 -35 0 -22 3 -22 108 -3 46 8 158 21 250 30 250 23 346 55 390
127 80 132 -13 265 -216 312 l-57 13 44 12 c126 35 205 90 222 154 33 122 -83
216 -302 246 -84 11 -429 21 -532 14z m475 -54 c67 -14 130 -50 148 -85 23
-42 20 -146 -6 -181 -34 -47 -106 -76 -201 -81 -66 -4 -83 -2 -83 9 0 8 -7 79
-15 159 -21 210 -25 190 45 190 32 0 83 -5 112 -11z m54 -414 c110 -31 167
-100 161 -196 -4 -71 -31 -109 -99 -143 -42 -21 -66 -26 -125 -26 -63 0 -74 3
-84 21 -12 23 -48 356 -40 365 9 9 129 -5 187 -21z"/>
<path d="M5445 9022 c-131 -39 -206 -99 -253 -200 -67 -146 22 -396 179 -501
113 -75 246 -78 394 -8 145 69 224 175 233 313 11 175 -62 309 -206 377 -61
29 -77 32 -177 34 -82 2 -125 -2 -170 -15z m182 -47 c194 -81 283 -420 151
-579 -34 -41 -97 -75 -138 -76 -43 0 -123 45 -172 97 -143 154 -177 414 -68
518 17 16 43 35 58 41 38 17 126 17 169 -1z"/>
<path d="M7299 8971 c-195 -60 -242 -311 -84 -450 49 -43 104 -69 193 -92 289
-74 517 8 530 190 5 74 -14 118 -85 189 -96 96 -298 173 -452 171 -42 0 -88
-4 -102 -8z m283 -51 c191 -53 253 -283 110 -412 -39 -35 -119 -68 -167 -68
-12 0 -45 7 -73 15 -109 33 -168 125 -160 250 11 170 131 259 290 215z"/>
<path d="M4332 8935 c-88 -30 -263 -117 -443 -220 -162 -93 -164 -95 -145
-120 13 -18 15 -18 74 8 33 15 67 27 76 27 31 0 76 -57 287 -365 117 -170 231
-337 254 -370 50 -71 75 -118 75 -139 0 -9 -17 -34 -37 -57 -29 -32 -35 -44
-27 -57 6 -9 15 -17 20 -19 5 -1 61 38 124 88 63 49 134 102 157 117 46 29 52
42 29 61 -11 10 -21 9 -45 -3 -41 -22 -67 -20 -91 7 -26 27 -220 331 -220 343
0 5 25 24 55 42 l54 33 63 -32 c70 -35 250 -139 371 -214 l78 -49 120 59 c65
33 119 64 119 70 -1 31 -17 36 -58 19 -26 -10 -52 -14 -69 -9 -16 3 -104 50
-198 104 -93 54 -198 113 -232 131 l-63 33 32 35 c86 99 106 225 54 340 -34
73 -95 132 -154 150 -67 20 -178 14 -260 -13z m121 -78 c73 -31 157 -164 165
-262 6 -71 -12 -125 -58 -177 -36 -41 -166 -136 -174 -127 -9 10 -288 453
-292 463 -4 10 144 88 206 109 30 11 122 7 153 -6z"/>
<path d="M8462 7108 c-6 -8 -13 -30 -16 -49 -9 -74 -49 -205 -66 -222 -17 -15
-50 -102 -50 -130 0 -5 -7 -23 -15 -40 -8 -18 -26 -79 -40 -137 -22 -90 -149
-486 -175 -545 -4 -11 -20 -60 -35 -110 -37 -125 -117 -376 -127 -397 -4 -10
-12 -27 -18 -38 -5 -11 -10 -25 -10 -31 0 -6 -7 -25 -15 -42 -22 -48 -57 -178
-59 -216 -1 -38 -7 -35 105 -45 41 -4 81 -9 89 -11 8 -2 40 -6 70 -9 30 -3 82
-10 115 -15 33 -6 101 -15 150 -20 50 -6 104 -12 120 -15 17 -2 73 -9 125 -15
52 -6 133 -17 180 -25 64 -11 88 -11 97 -3 15 15 21 74 28 277 3 91 8 208 10
260 3 52 7 151 10 220 3 110 16 509 30 905 2 72 7 185 11 252 l6 122 -23 5
c-13 3 -53 11 -89 17 -36 5 -103 17 -150 25 -47 8 -110 18 -140 23 -30 5 -67
12 -81 16 -16 4 -30 1 -37 -7z"/>
<path d="M7282 6888 c-6 -13 -20 -57 -31 -98 -30 -112 -60 -213 -70 -235 -5
-11 -21 -60 -36 -110 -31 -103 -62 -196 -80 -240 -6 -16 -20 -57 -30 -90 -10
-33 -26 -85 -35 -115 -10 -30 -39 -122 -65 -205 -26 -82 -51 -159 -56 -170
-39 -89 -104 -344 -92 -356 6 -6 43 -15 84 -20 41 -5 153 -21 249 -34 96 -13
218 -29 270 -35 52 -6 106 -13 120 -15 78 -12 136 -14 147 -7 9 5 14 63 18
192 3 102 7 219 10 260 6 72 9 164 20 540 2 96 7 231 10 300 15 329 15 377 1
389 -8 7 -42 16 -77 22 -34 5 -66 12 -69 14 -12 7 -206 35 -243 35 -25 0 -37
-6 -45 -22z"/>
<path d="M3933 5298 c-10 -21 -24 -91 -38 -193 -4 -22 -11 -60 -16 -85 -5 -25
-11 -63 -14 -85 -2 -22 -7 -59 -11 -82 -6 -36 -4 -43 10 -43 9 0 27 6 39 14
12 8 58 21 102 30 44 9 105 22 135 28 30 7 118 11 196 11 121 -2 157 -6 265
-33 68 -17 144 -42 169 -54 25 -13 74 -38 110 -56 36 -18 71 -37 78 -43 7 -5
26 -17 42 -26 17 -9 80 -65 140 -124 107 -105 191 -215 232 -301 10 -22 29
-59 41 -81 12 -22 31 -65 41 -96 31 -90 27 -88 157 -90 88 -2 139 -9 224 -31
61 -16 122 -35 137 -44 41 -22 69 -9 108 53 35 56 118 153 130 153 4 0 29 22
56 48 27 26 64 59 82 72 19 14 39 30 45 36 14 12 153 94 161 94 3 0 27 13 54
29 54 32 266 107 322 114 19 2 54 10 78 16 50 14 308 19 407 8 39 -4 97 -14
130 -21 33 -8 71 -17 85 -20 45 -9 124 -38 195 -72 39 -19 74 -34 79 -34 5 0
23 -11 40 -24 17 -13 51 -33 74 -45 51 -26 138 -86 167 -116 11 -11 41 -38 66
-60 24 -22 72 -74 104 -115 33 -41 63 -77 67 -80 20 -15 188 -333 188 -356 0
-8 4 -22 10 -32 5 -9 15 -30 21 -47 l11 -30 13 37 c8 20 16 58 19 85 3 26 8
66 11 88 10 88 14 116 19 124 3 4 10 34 15 67 6 32 15 86 21 119 9 52 14 87
24 155 10 73 19 120 27 145 5 17 11 50 14 74 3 24 7 47 10 51 2 3 9 33 14 66
6 32 15 88 22 124 12 68 15 127 6 136 -3 3 -25 7 -49 9 -56 5 -384 43 -423 50
-16 3 -79 9 -140 14 -60 5 -128 12 -150 15 -22 3 -65 8 -95 10 -30 3 -102 12
-160 21 -124 19 -296 38 -455 50 -38 2 -81 7 -95 9 -37 6 -188 25 -240 30 -25
2 -63 8 -85 14 -22 6 -92 13 -155 17 -63 3 -122 8 -130 10 -8 2 -62 9 -120 15
-135 14 -154 17 -219 30 -29 5 -79 10 -110 10 -31 0 -96 6 -146 14 -49 8 -123
17 -163 20 -40 3 -103 11 -140 16 -37 6 -110 15 -162 20 -283 27 -410 41 -450
49 -25 6 -72 13 -105 16 -33 3 -73 8 -90 10 -67 8 -134 15 -210 21 -44 3 -107
9 -140 14 -33 5 -87 12 -120 15 -73 7 -103 11 -180 24 -33 5 -98 12 -145 15
-47 3 -112 10 -145 16 -87 14 -100 13 -112 -12z"/>
<path d="M4190 4849 c-111 -13 -260 -47 -286 -64 -13 -8 -31 -15 -41 -15 -10
0 -28 -6 -39 -14 -11 -8 -59 -35 -107 -59 -48 -25 -102 -58 -122 -73 -57 -48
-216 -210 -235 -242 -10 -16 -23 -33 -28 -36 -5 -3 -22 -29 -37 -58 -15 -29
-33 -60 -40 -68 -31 -36 -107 -289 -131 -437 -12 -68 -1 -320 16 -378 43 -148
64 -211 71 -219 5 -6 9 -17 9 -26 0 -21 87 -166 142 -238 62 -80 169 -186 220
-218 23 -14 52 -34 63 -44 23 -21 173 -104 201 -112 10 -3 68 -20 127 -38 60
-17 134 -36 165 -41 73 -13 211 -12 304 1 40 6 90 13 112 16 21 2 46 8 55 13
9 4 38 13 65 20 122 30 332 160 444 275 160 166 197 215 239 321 13 33 35 83
48 110 34 70 75 242 75 314 0 99 32 116 190 98 117 -14 208 -49 216 -84 4 -13
-5 -72 -19 -131 -35 -145 -38 -170 -43 -297 -3 -93 7 -256 21 -322 58 -287
200 -538 433 -766 24 -23 51 -46 60 -51 10 -5 29 -20 44 -34 39 -36 74 -57
268 -159 88 -46 281 -101 430 -122 93 -13 304 -9 385 8 123 26 191 43 224 57
18 8 40 14 47 14 8 0 56 20 108 44 206 97 416 268 523 426 20 30 46 66 58 80
70 82 130 219 180 408 36 132 39 151 50 242 15 121 -3 410 -28 455 -6 11 -12
22 -12 25 -7 43 -21 96 -37 143 -20 58 -124 267 -137 277 -4 3 -11 12 -15 20
-21 45 -30 56 -113 150 -112 127 -263 251 -341 281 -13 5 -42 22 -65 37 -50
33 -75 45 -142 67 -27 10 -59 21 -70 26 -25 10 -120 33 -205 49 -36 6 -85 16
-109 21 -39 9 -267 5 -331 -6 -152 -26 -349 -85 -413 -124 -18 -10 -67 -37
-109 -59 -110 -57 -336 -248 -380 -322 -12 -19 -40 -57 -62 -84 -40 -48 -40
-48 -89 -43 -27 4 -54 10 -61 15 -11 9 -177 52 -225 59 -14 1 -71 6 -126 9
-55 4 -108 11 -117 15 -9 5 -22 26 -28 46 -26 85 -101 240 -159 328 -43 65
-284 315 -303 315 -5 0 -35 16 -66 37 -31 20 -88 49 -127 65 -65 27 -261 83
-330 94 -64 11 -193 12 -265 3z m240 -309 c97 -6 115 -11 193 -49 48 -22 88
-41 91 -41 5 0 92 -60 152 -104 73 -55 185 -203 230 -306 9 -19 24 -53 34 -75
10 -22 27 -85 37 -140 49 -278 -17 -529 -196 -740 -151 -180 -341 -283 -570
-311 -99 -12 -128 -11 -210 1 -53 8 -121 22 -151 31 -63 18 -156 60 -164 73
-3 5 -24 18 -45 29 -62 33 -131 89 -173 142 -21 27 -42 50 -46 52 -5 2 -31 44
-59 93 -53 92 -91 193 -113 300 -20 96 -15 329 9 359 4 6 13 34 20 61 11 49
39 122 69 180 8 17 40 61 71 100 31 38 61 76 66 82 38 48 183 151 263 187 93
43 347 102 376 87 5 -2 57 -7 116 -11z m2930 -375 c203 -19 456 -137 620 -289
161 -150 292 -386 320 -581 5 -33 13 -83 18 -111 9 -53 8 -135 -2 -189 -3 -16
-8 -55 -11 -85 -9 -83 -38 -185 -76 -267 -10 -24 -19 -45 -19 -48 0 -12 -80
-134 -109 -165 -17 -19 -31 -38 -31 -42 0 -8 -73 -81 -135 -133 -136 -116
-398 -227 -566 -240 -46 -4 -95 -9 -109 -11 -30 -4 -206 12 -278 27 -29 6 -65
17 -80 25 -15 8 -32 14 -38 14 -14 0 -135 59 -154 75 -8 7 -33 22 -54 34 -60
31 -203 158 -262 233 -99 123 -209 376 -221 508 -4 36 -6 135 -6 220 l1 155
41 102 c23 57 41 107 41 113 0 23 107 207 134 229 9 7 16 19 16 26 0 18 170
177 238 221 113 75 168 100 317 142 97 28 118 31 215 38 47 4 87 8 89 10 3 2
12 2 20 -1 9 -2 45 -7 81 -10z"/>
<path d="M4254 4140 c-86 -17 -148 -41 -203 -77 -64 -42 -135 -112 -158 -157
-9 -17 -28 -45 -43 -63 -34 -38 -63 -122 -62 -177 2 -157 4 -192 16 -215 7
-14 16 -43 19 -64 11 -73 136 -222 232 -277 94 -54 160 -71 285 -77 113 -5
116 -5 200 29 189 76 284 186 342 396 17 64 20 94 15 179 -5 87 -11 114 -41
183 -41 95 -73 136 -161 206 -69 55 -133 82 -260 109 -77 16 -118 17 -181 5z
m381 -350 c26 -10 64 -77 65 -113 0 -11 -15 -34 -34 -53 -43 -43 -90 -46 -135
-8 -25 21 -31 33 -31 66 0 54 14 76 63 99 50 22 40 21 72 9z"/>
<path d="M6990 3680 c-79 -16 -154 -42 -175 -60 -11 -10 -33 -25 -50 -33 -39
-21 -103 -89 -144 -154 -17 -28 -38 -57 -46 -63 -8 -6 -23 -39 -34 -73 -37
-110 -18 -299 41 -424 27 -55 128 -174 178 -207 108 -71 298 -115 417 -95 159
26 320 143 390 284 35 70 73 214 73 277 0 98 -36 226 -86 309 -34 56 -143 149
-210 180 -114 52 -263 77 -354 59z m388 -356 c53 -37 69 -125 30 -161 -46 -42
-64 -46 -113 -24 -52 23 -70 54 -61 104 7 39 27 60 76 81 44 19 41 19 68 0z"/>
<path d="M9126 4588 c-4 -40 -11 -88 -15 -108 -26 -100 -46 -215 -56 -320 -8
-76 -25 -182 -31 -192 -5 -7 -21 -97 -29 -154 -2 -12 -8 -45 -14 -75 -29 -139
-40 -203 -36 -209 2 -4 -3 -29 -11 -55 -8 -27 -16 -63 -18 -80 -2 -16 -11 -59
-21 -93 -11 -45 -17 -116 -19 -245 l-2 -182 -77 -295 c-43 -162 -80 -311 -82
-330 -15 -102 -15 -119 -4 -125 10 -7 75 8 179 41 25 8 68 21 95 28 28 7 106
30 175 50 69 20 157 45 195 56 39 11 99 29 135 39 36 11 81 23 100 26 19 4 40
11 45 15 6 4 39 15 75 23 93 23 238 63 285 80 33 11 42 21 53 53 17 50 33 143
46 265 2 19 11 72 20 119 10 47 19 98 22 115 2 16 6 37 9 45 3 8 7 38 10 65 3
28 15 95 26 150 10 55 24 127 30 160 6 33 15 81 21 107 11 53 15 80 23 163 3
33 10 80 15 105 34 176 34 171 18 186 -15 15 -30 24 -154 90 -33 18 -84 48
-114 68 -30 20 -58 36 -62 36 -4 0 -63 33 -130 73 -175 105 -218 129 -258 148
-19 9 -75 42 -125 73 -49 30 -112 67 -140 81 -27 15 -68 37 -90 50 -22 13 -49
24 -61 25 -19 0 -22 -7 -28 -72z"/>
</g>
</svg>
